<mxfile host="app.diagrams.net" agent="Mozilla/5.0 (Windows NT 10.0; Win64; x64) AppleWebKit/537.36 (KHTML, like Gecko) Chrome/133.0.0.0 Safari/537.36 Edg/133.0.0.0" version="26.0.15">
  <diagram id="ezdyjBQxlUQvCWjWpcx2" name="First Time Start">
    <mxGraphModel dx="978" dy="574" grid="1" gridSize="10" guides="1" tooltips="1" connect="1" arrows="1" fold="1" page="1" pageScale="1" pageWidth="827" pageHeight="1169" math="0" shadow="0">
      <root>
        <mxCell id="0" />
        <mxCell id="1" parent="0" />
        <mxCell id="AiA4CHntsJpjG9RiwgfL-3" value="" style="edgeStyle=orthogonalEdgeStyle;rounded=0;orthogonalLoop=1;jettySize=auto;html=1;" edge="1" parent="1" source="AiA4CHntsJpjG9RiwgfL-1" target="AiA4CHntsJpjG9RiwgfL-2">
          <mxGeometry relative="1" as="geometry" />
        </mxCell>
        <mxCell id="AiA4CHntsJpjG9RiwgfL-34" value="&lt;b&gt;NO&lt;/b&gt;" style="edgeLabel;html=1;align=center;verticalAlign=middle;resizable=0;points=[];" vertex="1" connectable="0" parent="AiA4CHntsJpjG9RiwgfL-3">
          <mxGeometry x="0.5655" relative="1" as="geometry">
            <mxPoint as="offset" />
          </mxGeometry>
        </mxCell>
        <mxCell id="AiA4CHntsJpjG9RiwgfL-9" value="" style="edgeStyle=orthogonalEdgeStyle;rounded=0;orthogonalLoop=1;jettySize=auto;html=1;" edge="1" parent="1" source="AiA4CHntsJpjG9RiwgfL-1" target="AiA4CHntsJpjG9RiwgfL-8">
          <mxGeometry relative="1" as="geometry" />
        </mxCell>
        <mxCell id="AiA4CHntsJpjG9RiwgfL-33" value="Have An Account" style="edgeLabel;html=1;align=center;verticalAlign=middle;resizable=0;points=[];" vertex="1" connectable="0" parent="AiA4CHntsJpjG9RiwgfL-9">
          <mxGeometry x="-0.5714" y="2" relative="1" as="geometry">
            <mxPoint as="offset" />
          </mxGeometry>
        </mxCell>
        <mxCell id="AiA4CHntsJpjG9RiwgfL-35" value="&lt;b&gt;YES&lt;/b&gt;" style="edgeLabel;html=1;align=center;verticalAlign=middle;resizable=0;points=[];" vertex="1" connectable="0" parent="AiA4CHntsJpjG9RiwgfL-9">
          <mxGeometry x="0.5714" y="-2" relative="1" as="geometry">
            <mxPoint x="1" y="-2" as="offset" />
          </mxGeometry>
        </mxCell>
        <mxCell id="AiA4CHntsJpjG9RiwgfL-1" value="Start" style="ellipse;whiteSpace=wrap;html=1;" vertex="1" parent="1">
          <mxGeometry x="354" y="30" width="120" height="80" as="geometry" />
        </mxCell>
        <mxCell id="AiA4CHntsJpjG9RiwgfL-31" value="" style="edgeStyle=orthogonalEdgeStyle;rounded=0;orthogonalLoop=1;jettySize=auto;html=1;" edge="1" parent="1" source="AiA4CHntsJpjG9RiwgfL-2" target="AiA4CHntsJpjG9RiwgfL-29">
          <mxGeometry relative="1" as="geometry" />
        </mxCell>
        <mxCell id="AiA4CHntsJpjG9RiwgfL-32" style="edgeStyle=orthogonalEdgeStyle;rounded=0;orthogonalLoop=1;jettySize=auto;html=1;exitX=0.5;exitY=1;exitDx=0;exitDy=0;entryX=0.5;entryY=0;entryDx=0;entryDy=0;" edge="1" parent="1" source="AiA4CHntsJpjG9RiwgfL-2" target="AiA4CHntsJpjG9RiwgfL-28">
          <mxGeometry relative="1" as="geometry" />
        </mxCell>
        <mxCell id="AiA4CHntsJpjG9RiwgfL-2" value="Create an Account" style="whiteSpace=wrap;html=1;" vertex="1" parent="1">
          <mxGeometry x="474" y="200" width="120" height="60" as="geometry" />
        </mxCell>
        <mxCell id="AiA4CHntsJpjG9RiwgfL-18" value="" style="edgeStyle=orthogonalEdgeStyle;rounded=0;orthogonalLoop=1;jettySize=auto;html=1;" edge="1" parent="1" source="AiA4CHntsJpjG9RiwgfL-8" target="AiA4CHntsJpjG9RiwgfL-16">
          <mxGeometry relative="1" as="geometry" />
        </mxCell>
        <mxCell id="AiA4CHntsJpjG9RiwgfL-20" style="edgeStyle=orthogonalEdgeStyle;rounded=0;orthogonalLoop=1;jettySize=auto;html=1;entryX=0.5;entryY=0;entryDx=0;entryDy=0;" edge="1" parent="1" source="AiA4CHntsJpjG9RiwgfL-8" target="AiA4CHntsJpjG9RiwgfL-14">
          <mxGeometry relative="1" as="geometry" />
        </mxCell>
        <mxCell id="AiA4CHntsJpjG9RiwgfL-8" value="Sign in" style="whiteSpace=wrap;html=1;" vertex="1" parent="1">
          <mxGeometry x="234" y="200" width="120" height="60" as="geometry" />
        </mxCell>
        <mxCell id="AiA4CHntsJpjG9RiwgfL-14" value="Login" style="whiteSpace=wrap;html=1;" vertex="1" parent="1">
          <mxGeometry x="154" y="310" width="80" height="50" as="geometry" />
        </mxCell>
        <mxCell id="AiA4CHntsJpjG9RiwgfL-52" style="edgeStyle=orthogonalEdgeStyle;rounded=0;orthogonalLoop=1;jettySize=auto;html=1;entryX=1;entryY=0.5;entryDx=0;entryDy=0;" edge="1" parent="1" source="AiA4CHntsJpjG9RiwgfL-16" target="AiA4CHntsJpjG9RiwgfL-41">
          <mxGeometry relative="1" as="geometry">
            <Array as="points">
              <mxPoint x="400" y="410" />
            </Array>
          </mxGeometry>
        </mxCell>
        <mxCell id="AiA4CHntsJpjG9RiwgfL-16" value="Forgot Password" style="whiteSpace=wrap;html=1;" vertex="1" parent="1">
          <mxGeometry x="354" y="310" width="80" height="50" as="geometry" />
        </mxCell>
        <mxCell id="AiA4CHntsJpjG9RiwgfL-39" value="" style="edgeStyle=orthogonalEdgeStyle;rounded=0;orthogonalLoop=1;jettySize=auto;html=1;" edge="1" parent="1" source="AiA4CHntsJpjG9RiwgfL-28" target="AiA4CHntsJpjG9RiwgfL-36">
          <mxGeometry relative="1" as="geometry" />
        </mxCell>
        <mxCell id="AiA4CHntsJpjG9RiwgfL-28" value="Continue with" style="whiteSpace=wrap;html=1;" vertex="1" parent="1">
          <mxGeometry x="600" y="310" width="80" height="50" as="geometry" />
        </mxCell>
        <mxCell id="AiA4CHntsJpjG9RiwgfL-44" style="edgeStyle=orthogonalEdgeStyle;rounded=0;orthogonalLoop=1;jettySize=auto;html=1;" edge="1" parent="1" source="AiA4CHntsJpjG9RiwgfL-29" target="AiA4CHntsJpjG9RiwgfL-43">
          <mxGeometry relative="1" as="geometry" />
        </mxCell>
        <mxCell id="AiA4CHntsJpjG9RiwgfL-29" value="Register" style="whiteSpace=wrap;html=1;" vertex="1" parent="1">
          <mxGeometry x="494" y="310" width="80" height="50" as="geometry" />
        </mxCell>
        <mxCell id="AiA4CHntsJpjG9RiwgfL-36" value="Facebook" style="whiteSpace=wrap;html=1;" vertex="1" parent="1">
          <mxGeometry x="660" y="400" width="110" height="30" as="geometry" />
        </mxCell>
        <mxCell id="AiA4CHntsJpjG9RiwgfL-37" value="Google" style="whiteSpace=wrap;html=1;" vertex="1" parent="1">
          <mxGeometry x="700" y="430" width="110" height="30" as="geometry" />
        </mxCell>
        <mxCell id="AiA4CHntsJpjG9RiwgfL-51" style="edgeStyle=orthogonalEdgeStyle;rounded=0;orthogonalLoop=1;jettySize=auto;html=1;entryX=1;entryY=0.5;entryDx=0;entryDy=0;" edge="1" parent="1" source="AiA4CHntsJpjG9RiwgfL-38" target="AiA4CHntsJpjG9RiwgfL-43">
          <mxGeometry relative="1" as="geometry">
            <mxPoint x="795" y="550" as="targetPoint" />
            <Array as="points">
              <mxPoint x="800" y="530" />
            </Array>
          </mxGeometry>
        </mxCell>
        <mxCell id="AiA4CHntsJpjG9RiwgfL-38" value="Apple ID" style="whiteSpace=wrap;html=1;" vertex="1" parent="1">
          <mxGeometry x="740" y="460" width="110" height="30" as="geometry" />
        </mxCell>
        <mxCell id="AiA4CHntsJpjG9RiwgfL-41" value="Sign up" style="ellipse;whiteSpace=wrap;html=1;" vertex="1" parent="1">
          <mxGeometry x="254" y="380" width="80" height="60" as="geometry" />
        </mxCell>
        <mxCell id="AiA4CHntsJpjG9RiwgfL-43" value="Sign in" style="ellipse;whiteSpace=wrap;html=1;" vertex="1" parent="1">
          <mxGeometry x="574" y="500" width="80" height="60" as="geometry" />
        </mxCell>
        <mxCell id="AiA4CHntsJpjG9RiwgfL-53" style="edgeStyle=orthogonalEdgeStyle;rounded=0;orthogonalLoop=1;jettySize=auto;html=1;entryX=0;entryY=0.5;entryDx=0;entryDy=0;" edge="1" parent="1" target="AiA4CHntsJpjG9RiwgfL-41">
          <mxGeometry relative="1" as="geometry">
            <mxPoint x="196" y="360" as="sourcePoint" />
            <mxPoint x="130" y="410" as="targetPoint" />
            <Array as="points">
              <mxPoint x="196" y="410" />
            </Array>
          </mxGeometry>
        </mxCell>
      </root>
    </mxGraphModel>
  </diagram>
</mxfile>
